<?xml version="1.0" encoding="UTF-8"?>
<svg id="Capa_1" data-name="Capa 1" xmlns="http://www.w3.org/2000/svg" viewBox="0 0 1525.48 675.21">
  <defs>
    <style>
      .cls-1 {
        fill: #1800ad;
      }
    </style>
  </defs>
  <path class="cls-1" d="M332.85,22.5c64.15,0,116.34,52.19,116.34,116.34,0,22.15-6.84,43.94-19.77,63.01-6.61,9.74-5.6,22.55,2.46,31.14,4.71,5.02,11.35,7.89,18.24,7.89,4.45,0,8.84-1.19,12.68-3.46,17.76-10.46,38.09-15.98,58.79-15.98,64.15,0,116.34,52.19,116.34,116.34s-52.19,116.34-116.34,116.34c-21.58,0-42.66-5.98-60.96-17.29-3.95-2.44-8.49-3.73-13.14-3.73-6.75,0-13.3,2.78-17.99,7.63-8.11,8.4-9.29,21.54-2.81,31.25,12.76,19.11,19.5,41.37,19.5,64.39,0,64.15-52.19,116.34-116.34,116.34s-116.34-52.19-116.34-116.34c0-22.76,6.6-44.82,19.09-63.79,6.47-9.82,5.29-22.61-2.86-31.08-4.69-4.87-11.26-7.67-18.02-7.67-4.55,0-9.02,1.25-12.93,3.6-18.05,10.91-38.79,16.68-59.96,16.68-64.15,0-116.34-52.19-116.34-116.34s52.19-116.34,116.34-116.34c21.93,0,43.29,6.16,61.79,17.81,4,2.52,8.6,3.85,13.32,3.85,6.69,0,12.97-2.6,17.69-7.33,8.31-8.32,9.73-21.08,3.45-31.02-12.15-19.24-18.57-42.03-18.57-65.91,0-64.15,52.19-116.34,116.34-116.34M327.85,256.18c-20.3,0-39.99-5.5-56.95-15.9-3.94-2.41-8.45-3.69-13.07-3.69-6.68,0-13.19,2.74-17.87,7.51-8.21,8.38-9.51,21.13-3.17,31,12.02,18.71,18.37,40.38,18.37,62.68s-6.6,44.82-19.09,63.79c-6.47,9.82-5.29,22.61,2.86,31.08,4.69,4.87,11.26,7.67,18.02,7.67,4.55,0,9.02-1.25,12.93-3.6,18.05-10.91,38.79-16.68,59.96-16.68s42.66,5.98,60.96,17.29c3.95,2.44,8.49,3.73,13.14,3.73,6.75,0,13.3-2.78,17.99-7.63,8.11-8.4,9.29-21.54,2.81-31.25-12.76-19.11-19.5-41.37-19.5-64.39s6.68-45.08,19.32-64.13c6.52-9.82,5.37-22.62-2.79-31.13-4.69-4.89-11.27-7.69-18.05-7.69-4.56,0-9.04,1.25-12.94,3.61-19.17,11.6-40.93,17.73-62.94,17.73M332.85,7.5c-72.42,0-131.34,58.92-131.34,131.34,0,26.72,7.22,52.28,20.89,73.92,2.5,3.95,1.92,9.1-1.38,12.41-1.93,1.93-4.49,2.93-7.08,2.93-1.84,0-3.68-.5-5.33-1.54-20.89-13.16-45.03-20.12-69.79-20.12-72.42,0-131.34,58.92-131.34,131.34s58.92,131.34,131.34,131.34c23.91,0,47.32-6.52,67.72-18.84,1.61-.97,3.39-1.44,5.17-1.44,2.65,0,5.27,1.05,7.21,3.07,3.24,3.37,3.71,8.53,1.14,12.43-14.11,21.42-21.57,46.33-21.57,72.04,0,72.42,58.92,131.34,131.34,131.34s131.34-58.92,131.34-131.34c0-26-7.62-51.14-22.02-72.72-2.61-3.91-2.14-9.12,1.12-12.5,1.94-2.01,4.56-3.05,7.2-3.05,1.81,0,3.63.49,5.25,1.49,20.67,12.78,44.48,19.53,68.84,19.53,72.42,0,131.34-58.92,131.34-131.34s-58.92-131.34-131.34-131.34c-23.37,0-46.33,6.24-66.4,18.05-1.58.93-3.33,1.38-5.07,1.38-2.69,0-5.35-1.09-7.3-3.16-3.2-3.41-3.61-8.58-.98-12.45,14.62-21.57,22.35-46.27,22.35-71.43,0-72.42-58.92-131.34-131.34-131.34h0ZM327.85,271.18c24.75,0,49.2-6.88,70.71-19.9,1.61-.97,3.4-1.45,5.17-1.45,2.65,0,5.28,1.06,7.22,3.08,3.24,3.38,3.7,8.55,1.12,12.45-14.28,21.51-21.82,46.56-21.82,72.42s7.62,51.14,22.02,72.72c2.61,3.91,2.14,9.12-1.12,12.5-1.94,2.01-4.56,3.05-7.2,3.05-1.81,0-3.63-.49-5.25-1.49-20.67-12.78-44.48-19.53-68.84-19.53s-47.32,6.52-67.72,18.84c-1.61.97-3.39,1.44-5.17,1.44-2.65,0-5.27-1.05-7.21-3.07-3.24-3.37-3.71-8.53-1.14-12.43,14.11-21.42,21.57-46.33,21.57-72.04s-7.18-49.66-20.75-70.79c-2.52-3.92-1.99-9.07,1.27-12.4,1.94-1.98,4.53-3,7.15-3,1.8,0,3.61.48,5.23,1.48,19.32,11.85,41.72,18.11,64.79,18.11h0Z"/>
</svg>