<?xml version="1.0" encoding="UTF-8"?>
<svg id="Capa_1" data-name="Capa 1" xmlns="http://www.w3.org/2000/svg" viewBox="0 0 1049.49 350">
  <path d="M174.6,350c-40.76,0-73.92-31.31-73.92-69.8,0-11.8,3.19-23.46,9.22-33.73,1.09-1.85.87-4.2-.54-5.82-.97-1.11-2.36-1.72-3.77-1.72-.64,0-1.29.12-1.92.38-9.43,3.91-19.44,5.9-29.75,5.9C33.16,245.21,0,213.9,0,175.41s33.16-69.8,73.92-69.8c10.55,0,20.77,2.07,30.37,6.16.63.27,1.3.4,1.96.4,1.42,0,2.81-.61,3.78-1.73,1.42-1.64,1.62-4.01.49-5.87-6.44-10.6-9.84-22.62-9.84-34.77C100.68,31.31,133.84,0,174.6,0s73.92,31.31,73.92,69.8c0,12.38-3.5,24.55-10.11,35.2-1.16,1.86-.97,4.26.48,5.92.97,1.12,2.36,1.72,3.77,1.72.68,0,1.37-.14,2.02-.43,9.75-4.32,20.61-6.6,31.4-6.6,40.76,0,73.92,31.31,73.92,69.8s-33.16,69.8-73.92,69.8c-10.71,0-21.06-2.13-30.77-6.32-.64-.28-1.31-.41-1.98-.41-1.41,0-2.78.59-3.76,1.7-1.43,1.63-1.65,3.99-.55,5.86,6.21,10.45,9.49,22.27,9.49,34.17,0,38.49-33.16,69.8-73.92,69.8ZM174.6,210.4c10.72,0,21.06,2.12,30.75,6.31.64.28,1.31.41,1.98.41,1.41,0,2.78-.59,3.76-1.7,1.43-1.63,1.65-3.99.54-5.86-6.19-10.43-9.47-22.24-9.47-34.15s3.5-24.53,10.11-35.22c1.15-1.87.96-4.27-.49-5.92-.97-1.11-2.36-1.71-3.77-1.71-.69,0-1.38.14-2.03.43-9.86,4.39-20.43,6.61-31.39,6.61s-20.76-2.06-30.34-6.13c-.63-.27-1.3-.4-1.95-.4-1.42,0-2.81.61-3.78,1.73-1.42,1.64-1.62,4.01-.49,5.87,6.42,10.56,9.81,22.58,9.81,34.74s-3.19,23.43-9.22,33.75c-1.08,1.86-.86,4.2.55,5.81.97,1.11,2.35,1.71,3.77,1.71.65,0,1.3-.12,1.92-.38,9.4-3.92,19.4-5.9,29.74-5.9Z"/>
  <g>
    <path d="M438.93,308.26c-14.19,0-26.52-2.48-36.98-7.43-10.46-4.95-18.54-12.51-24.22-22.67-1.77-3.16-3.27-6.59-4.49-10.28-4.64-13.97,5.71-28.4,20.43-28.4h.63c8.4,0,16.04,4.88,19.55,12.51.3.65.62,1.29.97,1.9,2.24,3.97,5.38,6.96,9.39,8.97,4.02,2.01,8.81,3.01,14.39,3.01,4.71,0,8.69-.68,11.95-2.05,3.26-1.36,5.76-3.27,7.49-5.7,1.74-2.43,2.61-5.27,2.61-8.52,0-2.9-.81-5.46-2.44-7.69-1.63-2.22-4.27-4.23-7.93-6.02-3.66-1.79-8.49-3.37-14.5-4.74l-16.18-3.97c-14.62-3.59-26.05-9.8-34.26-18.64-8.22-8.84-12.33-20.64-12.33-35.42,0-12.12,2.79-22.75,8.36-31.89,5.57-9.14,13.29-16.24,23.13-21.33,9.85-5.08,21.21-7.62,34.1-7.62s24.54,2.56,34.1,7.69c9.56,5.12,16.94,12.38,22.16,21.77.37.67.73,1.36,1.08,2.05,7.17,14.22-3.43,31-19.36,31h0c-7.62,0-14.81-3.94-18.54-10.58-.88-1.57-1.97-2.97-3.25-4.21-3.69-3.54-9.05-5.32-16.07-5.32-4.42,0-8.11.64-11.08,1.92-2.97,1.28-5.2,3.05-6.68,5.32-1.48,2.26-2.23,4.85-2.23,7.75,0,3.07.76,5.72,2.28,7.94,1.52,2.22,3.95,4.14,7.28,5.76,3.33,1.62,7.56,3.07,12.71,4.35l13.25,3.2c8.98,2.22,16.71,5.1,23.19,8.65,6.48,3.54,11.78,7.73,15.91,12.55,4.13,4.83,7.15,10.29,9.07,16.39,1.92,6.11,2.88,12.83,2.88,20.17,0,12.72-2.64,23.53-7.93,32.41-5.29,8.88-12.87,15.63-22.75,20.24s-21.78,6.92-35.68,6.92Z"/>
    <path d="M565.99,137.07v146.65c0,12.21-9.89,22.1-22.1,22.1h0c-12.21,0-22.1-9.89-22.1-22.1v-146.65c0-12.21,9.89-22.1,22.1-22.1h0c12.21,0,22.1,9.89,22.1,22.1Z"/>
    <path d="M661.13,308.51c-14.77,0-28.06-3.78-39.86-11.34-11.8-7.56-21.14-18.61-28.02-33.17-6.88-14.56-10.32-32.38-10.32-53.48s3.48-39.19,10.43-53.8c6.95-14.6,16.34-25.66,28.18-33.17,11.84-7.51,25.03-11.27,39.58-11.27,10.14,0,19.48,1.65,28.02,4.93,8.54,3.29,16.04,8.05,22.48,14.28,6.44,6.23,11.67,13.88,15.69,22.93.96,2.17,1.84,4.41,2.63,6.71,4.04,11.78-4.78,24.03-17.24,24.03h-8.62c-7.36,0-13.87-4.49-16.81-11.23-.01-.03-.03-.07-.04-.1-1.48-3.37-3.4-6.28-5.76-8.71-2.35-2.43-5.14-4.29-8.36-5.57-3.22-1.28-6.83-1.92-10.81-1.92-7.31,0-13.52,2.09-18.63,6.28-5.1,4.19-8.96,10.23-11.57,18.12-2.61,7.9-3.91,17.4-3.91,28.5s1.34,21.2,4.02,29.01c2.68,7.81,6.53,13.71,11.57,17.68,5.03,3.97,11.13,5.96,18.3,5.96,4.05,0,7.67-.64,10.86-1.92,3.19-1.28,5.97-3.14,8.36-5.57,2.39-2.43,4.34-5.34,5.86-8.71.04-.08.07-.16.11-.24,2.95-6.68,9.44-11.1,16.75-11.1h8.45c12.81,0,21.57,12.87,16.95,24.81-.18.46-.36.92-.55,1.38-3.48,8.58-8.33,16.4-14.55,23.44-6.23,7.04-13.78,12.68-22.64,16.91-8.87,4.23-19.06,6.34-30.57,6.34Z"/>
    <path d="M903.69,300.32l-52.05-182.21c-.53-1.85-2.22-3.13-4.15-3.13h-53.52c-1.94,0-3.64,1.29-4.16,3.16l-50.5,182.21c-.76,2.75,1.31,5.47,4.16,5.47h40.02c1.99,0,3.72-1.36,4.19-3.29l7.89-32.19h50.78l8.13,32.22c.48,1.92,2.21,3.26,4.19,3.26h40.87c2.87,0,4.94-2.75,4.15-5.5ZM836.47,231.15h-31.29c3.92-15.85,7.49-32.14,10.71-48.87,1.52-7.89,3.01-15.78,4.5-23.68,1.6,7.9,3.23,15.79,4.89,23.68,3.54,16.73,7.27,33.01,11.19,48.87Z"/>
    <path d="M1041.94,146.8c-5.03-10.12-12.11-17.95-21.23-23.5-9.12-5.55-19.8-8.33-32.04-8.33h-53c-9.12,0-16.51,7.39-16.51,16.51v157.83c0,9.12,7.39,16.51,16.51,16.51h11.19c9.12,0,16.51-7.39,16.51-16.51v-40.36h24.22c12.38,0,23.22-2.71,32.53-8.13,9.3-5.42,16.52-13.11,21.67-23.05,5.14-9.95,7.71-21.75,7.71-35.42s-2.52-25.42-7.55-35.54ZM1001.16,195.92c-1.96,3.84-4.72,6.81-8.31,8.9-3.58,2.09-7.91,3.14-12.98,3.14h-9.84c-2.31,0-4.55.33-6.67.93v-35.4c0-9.12,7.39-16.51,16.51-16.51,5.07,0,9.39,1,12.98,3.01,3.58,2.01,6.35,4.89,8.31,8.65,1.95,3.76,2.93,8.33,2.93,13.71s-.98,9.73-2.93,13.58Z"/>
  </g>
</svg>