<?xml version="1.0" encoding="UTF-8"?>
<svg xmlns="http://www.w3.org/2000/svg" viewBox="0 0 1517.98 660.21">
  <defs>
    <style>
      .cls-1 {
        fill: #1800ad;
      }
    </style>
  </defs>
  <g id="Capa_1" data-name="Capa 1">
    <path class="cls-1" d="M322.35,660.21c-72.42,0-131.34-58.92-131.34-131.34,0-25.71,7.46-50.62,21.57-72.04,2.57-3.9,2.1-9.07-1.14-12.43-1.94-2.02-4.56-3.07-7.21-3.07-1.78,0-3.56.47-5.17,1.44-20.4,12.33-43.81,18.84-67.72,18.84C58.92,461.62,0,402.7,0,330.28s58.92-131.34,131.34-131.34c24.76,0,48.89,6.96,69.79,20.12,1.64,1.03,3.49,1.54,5.33,1.54,2.59,0,5.15-1,7.08-2.93,3.3-3.31,3.87-8.46,1.38-12.41-13.67-21.64-20.89-47.2-20.89-73.92C194.01,58.92,252.93,0,325.35,0s131.34,58.92,131.34,131.34c0,25.16-7.73,49.86-22.35,71.43-2.62,3.87-2.22,9.04.98,12.45,1.94,2.07,4.6,3.16,7.3,3.16,1.74,0,3.49-.45,5.07-1.38,20.07-11.81,43.03-18.05,66.4-18.05,72.42,0,131.34,58.92,131.34,131.34s-58.92,131.34-131.34,131.34c-24.37,0-48.17-6.75-68.84-19.53-1.63-1-3.45-1.49-5.25-1.49-2.64,0-5.26,1.04-7.2,3.05-3.27,3.38-3.73,8.59-1.12,12.5,14.41,21.58,22.02,46.73,22.02,72.72,0,72.42-58.92,131.34-131.34,131.34ZM322.35,397.53c24.37,0,48.17,6.75,68.84,19.53,1.63,1,3.45,1.49,5.25,1.49,2.64,0,5.26-1.04,7.2-3.05,3.27-3.38,3.73-8.59,1.12-12.5-14.41-21.58-22.02-46.73-22.02-72.72s7.55-50.91,21.82-72.42c2.59-3.9,2.12-9.07-1.12-12.45-1.94-2.02-4.57-3.08-7.22-3.08-1.78,0-3.57.47-5.17,1.45-21.51,13.02-45.96,19.9-70.71,19.9-23.07,0-45.47-6.26-64.79-18.11-1.62-.99-3.43-1.48-5.23-1.48-2.62,0-5.21,1.03-7.15,3-3.26,3.33-3.79,8.48-1.27,12.4,13.58,21.13,20.75,45.61,20.75,70.79s-7.46,50.62-21.57,72.04c-2.57,3.9-2.1,9.07,1.14,12.43,1.94,2.02,4.56,3.07,7.21,3.07,1.78,0,3.56-.47,5.17-1.44,20.4-12.33,43.81-18.84,67.72-18.84Z"/>
  </g>
  <g id="Capa_2" data-name="Capa 2">
    <g>
      <path class="cls-1" d="M782.52,504.91c-17.09,0-31.94-4.12-44.54-12.37-12.6-8.25-22.33-20.83-29.17-37.75-2.13-5.27-3.93-10.97-5.41-17.12-5.59-23.27,6.88-47.29,24.61-47.29h.76c10.11,0,19.32,8.12,23.54,20.83.36,1.09.75,2.15,1.17,3.17,2.7,6.61,6.48,11.59,11.32,14.93,4.84,3.34,10.62,5.01,17.33,5.01,5.67,0,10.47-1.14,14.39-3.41,3.92-2.27,6.93-5.44,9.03-9.49,2.09-4.05,3.14-8.78,3.14-14.18,0-4.83-.98-9.1-2.94-12.8-1.96-3.7-5.15-7.04-9.55-10.02-4.41-2.99-10.23-5.62-17.47-7.89l-19.49-6.61c-17.62-5.97-31.38-16.32-41.27-31.03-9.9-14.72-14.85-34.37-14.85-58.97,0-20.19,3.36-37.89,10.07-53.11,6.71-15.21,16-27.05,27.86-35.51,11.86-8.46,25.55-12.69,41.08-12.69s29.56,4.27,41.08,12.8c11.51,8.53,20.41,20.62,26.69,36.26.45,1.12.88,2.26,1.3,3.41,8.63,23.69-4.14,51.62-23.32,51.62h0c-9.18,0-17.84-6.56-22.34-17.62-1.06-2.62-2.37-4.95-3.92-7.01-4.45-5.9-10.9-8.85-19.36-8.85-5.32,0-9.77,1.07-13.34,3.2-3.58,2.13-6.26,5.09-8.05,8.85-1.79,3.77-2.68,8.07-2.68,12.9,0,5.12.92,9.53,2.75,13.22,1.83,3.7,4.75,6.9,8.76,9.6,4.01,2.7,9.11,5.12,15.31,7.25l15.96,5.33c10.81,3.7,20.12,8.5,27.93,14.4,7.8,5.9,14.19,12.87,19.16,20.9,4.97,8.03,8.61,17.13,10.92,27.3,2.31,10.17,3.47,21.36,3.47,33.59,0,21.19-3.18,39.17-9.55,53.96-6.37,14.79-15.5,26.02-27.41,33.7-11.9,7.68-26.23,11.52-42.98,11.52Z"/>
      <path class="cls-1" d="M935.57,219.87v244.19c0,20.32-11.92,36.8-26.62,36.8h0c-14.7,0-26.62-16.48-26.62-36.8v-244.19c0-20.32,11.92-36.8,26.62-36.8h0c14.7,0,26.62,16.48,26.62,36.8Z"/>
      <path class="cls-1" d="M1050.17,505.33c-17.79,0-33.8-6.29-48.01-18.88-14.22-12.58-25.47-31-33.75-55.24-8.29-24.24-12.43-53.92-12.43-89.04s4.19-65.26,12.56-89.58c8.37-24.31,19.69-42.73,33.95-55.24,14.26-12.51,30.15-18.77,47.68-18.77,12.21,0,23.46,2.74,33.75,8.21,10.29,5.48,19.32,13.4,27.08,23.78,7.76,10.38,14.06,23.11,18.9,38.18,1.16,3.61,2.22,7.34,3.17,11.18,4.86,19.62-5.76,40.01-20.76,40.01h-10.38c-8.86,0-16.7-7.47-20.24-18.71-.02-.06-.04-.11-.05-.17-1.79-5.61-4.1-10.45-6.93-14.5-2.83-4.05-6.19-7.15-10.07-9.28-3.88-2.13-8.22-3.2-13.02-3.2-8.81,0-16.29,3.49-22.44,10.45-6.15,6.97-10.79,17.03-13.93,30.18-3.14,13.15-4.71,28.97-4.71,47.45s1.61,35.3,4.84,48.31c3.23,13.01,7.87,22.82,13.93,29.43,6.06,6.61,13.41,9.92,22.04,9.92,4.88,0,9.24-1.07,13.08-3.2,3.84-2.13,7.2-5.22,10.07-9.28,2.88-4.05,5.23-8.89,7.06-14.5.04-.13.09-.26.13-.4,3.56-11.13,11.37-18.48,20.17-18.48h10.18c15.43,0,25.98,21.42,20.42,41.31-.21.77-.43,1.54-.66,2.3-4.19,14.29-10.03,27.3-17.53,39.03-7.5,11.73-16.59,21.11-27.28,28.15-10.68,7.04-22.96,10.56-36.83,10.56Z"/>
      <path class="cls-1" d="M1342.36,491.69l-62.7-303.41c-.64-3.09-2.68-5.22-5-5.22h-64.46c-2.34,0-4.39,2.16-5.01,5.27l-60.83,303.41c-.92,4.58,1.57,9.11,5.01,9.11h48.21c2.4,0,4.48-2.26,5.05-5.48l9.5-53.6h61.16l9.79,53.65c.58,3.19,2.66,5.43,5.04,5.43h49.23c3.46,0,5.95-4.57,5-9.16ZM1261.39,376.51h-37.69c4.72-20.28,9.02-41.12,12.9-62.52,1.83-10.09,3.63-20.19,5.42-30.29,1.92,10.1,3.89,20.2,5.9,30.29,4.26,21.4,8.76,42.24,13.48,62.52Z"/>
      <path class="cls-1" d="M1508.89,236.07c-6.06-16.85-14.59-29.89-25.58-39.14-10.99-9.24-23.85-13.86-38.59-13.86h-63.84c-10.98,0-19.88,12.31-19.88,27.49v262.81c0,15.18,8.9,27.49,19.88,27.49h13.47c10.98,0,19.88-12.31,19.88-27.49v-67.21h29.17c14.91,0,27.97-4.51,39.18-13.54,11.2-9.03,19.9-21.82,26.1-38.39,6.19-16.56,9.29-36.22,9.29-58.97s-3.03-42.34-9.09-59.18ZM1459.77,317.86c-2.36,6.4-5.69,11.34-10.01,14.82-4.32,3.49-9.53,5.23-15.63,5.23h-11.85c-2.79,0-5.48.55-8.03,1.54v-58.94c0-15.18,8.9-27.49,19.88-27.49,6.1,0,11.32,1.67,15.63,5.01,4.32,3.34,7.65,8.14,10.01,14.4,2.35,6.26,3.53,13.86,3.53,22.82s-1.18,16.21-3.53,22.61Z"/>
    </g>
  </g>
</svg>