<?xml version="1.0" encoding="UTF-8"?>
<svg id="Capa_1" data-name="Capa 1" xmlns="http://www.w3.org/2000/svg" viewBox="0 0 1054.49 350">
  <path d="M174.6,350c-40.76,0-73.92-31.31-73.92-69.8,0-11.8,3.19-23.46,9.22-33.73,1.09-1.85.87-4.2-.54-5.82-.97-1.11-2.36-1.72-3.77-1.72-.64,0-1.29.12-1.92.38-9.43,3.91-19.44,5.9-29.75,5.9C33.16,245.21,0,213.9,0,175.41s33.16-69.8,73.92-69.8c10.55,0,20.77,2.07,30.37,6.16.63.27,1.3.4,1.96.4,1.42,0,2.81-.61,3.78-1.73,1.42-1.64,1.62-4.01.49-5.87-6.44-10.6-9.84-22.62-9.84-34.77C100.68,31.31,133.84,0,174.6,0s73.92,31.31,73.92,69.8c0,12.38-3.5,24.55-10.11,35.2-1.16,1.86-.97,4.26.48,5.92.97,1.12,2.36,1.72,3.77,1.72.68,0,1.37-.14,2.02-.43,9.75-4.32,20.61-6.6,31.4-6.6,40.76,0,73.92,31.31,73.92,69.8s-33.16,69.8-73.92,69.8c-10.71,0-21.06-2.13-30.77-6.32-.64-.28-1.31-.41-1.98-.41-1.41,0-2.78.59-3.76,1.7-1.43,1.63-1.65,3.99-.55,5.86,6.21,10.45,9.49,22.27,9.49,34.17,0,38.49-33.16,69.8-73.92,69.8ZM174.6,210.4c10.72,0,21.06,2.12,30.75,6.31.64.28,1.31.41,1.98.41,1.41,0,2.78-.59,3.76-1.7,1.43-1.63,1.65-3.99.54-5.86-6.19-10.43-9.47-22.24-9.47-34.15s3.5-24.53,10.11-35.22c1.15-1.87.96-4.27-.49-5.92-.97-1.11-2.36-1.71-3.77-1.71-.69,0-1.38.14-2.03.43-9.86,4.39-20.43,6.61-31.39,6.61s-20.76-2.06-30.34-6.13c-.63-.27-1.3-.4-1.95-.4-1.42,0-2.81.61-3.78,1.73-1.42,1.64-1.62,4.01-.49,5.87,6.42,10.56,9.81,22.58,9.81,34.74s-3.19,23.43-9.22,33.75c-1.08,1.86-.86,4.2.55,5.81.97,1.11,2.35,1.71,3.77,1.71.65,0,1.3-.12,1.92-.38,9.4-3.92,19.4-5.9,29.74-5.9Z"/>
</svg>