<?xml version="1.0" encoding="UTF-8"?>
<svg id="Capa_1" data-name="Capa 1" xmlns="http://www.w3.org/2000/svg" viewBox="0 0 1517.98 660.21">
  <defs>
    <style>
      .cls-1 {
        fill: #1800ad;
      }
    </style>
  </defs>
  <path class="cls-1" d="M322.35,660.21c-72.42,0-131.34-58.92-131.34-131.34,0-25.71,7.46-50.62,21.57-72.04,2.57-3.9,2.1-9.07-1.14-12.43-1.94-2.02-4.56-3.07-7.21-3.07-1.78,0-3.56.47-5.17,1.44-20.4,12.33-43.81,18.84-67.72,18.84C58.92,461.62,0,402.7,0,330.28s58.92-131.34,131.34-131.34c24.76,0,48.89,6.96,69.79,20.12,1.64,1.03,3.49,1.54,5.33,1.54,2.59,0,5.15-1,7.08-2.93,3.3-3.31,3.87-8.46,1.38-12.41-13.67-21.64-20.89-47.2-20.89-73.92C194.01,58.92,252.93,0,325.35,0s131.34,58.92,131.34,131.34c0,25.16-7.73,49.86-22.35,71.43-2.62,3.87-2.22,9.04.98,12.45,1.94,2.07,4.6,3.16,7.3,3.16,1.74,0,3.49-.45,5.07-1.38,20.07-11.81,43.03-18.05,66.4-18.05,72.42,0,131.34,58.92,131.34,131.34s-58.92,131.34-131.34,131.34c-24.37,0-48.17-6.75-68.84-19.53-1.63-1-3.45-1.49-5.25-1.49-2.64,0-5.26,1.04-7.2,3.05-3.27,3.38-3.73,8.59-1.12,12.5,14.41,21.58,22.02,46.73,22.02,72.72,0,72.42-58.92,131.34-131.34,131.34ZM322.35,397.53c24.37,0,48.17,6.75,68.84,19.53,1.63,1,3.45,1.49,5.25,1.49,2.64,0,5.26-1.04,7.2-3.05,3.27-3.38,3.73-8.59,1.12-12.5-14.41-21.58-22.02-46.73-22.02-72.72s7.55-50.91,21.82-72.42c2.59-3.9,2.12-9.07-1.12-12.45-1.94-2.02-4.57-3.08-7.22-3.08-1.78,0-3.57.47-5.17,1.45-21.51,13.02-45.96,19.9-70.71,19.9-23.07,0-45.47-6.26-64.79-18.11-1.62-.99-3.43-1.48-5.23-1.48-2.62,0-5.21,1.03-7.15,3-3.26,3.33-3.79,8.48-1.27,12.4,13.58,21.13,20.75,45.61,20.75,70.79s-7.46,50.62-21.57,72.04c-2.57,3.9-2.1,9.07,1.14,12.43,1.94,2.02,4.56,3.07,7.21,3.07,1.78,0,3.56-.47,5.17-1.44,20.4-12.33,43.81-18.84,67.72-18.84Z"/>
</svg>