<?xml version="1.0" encoding="UTF-8"?>
<svg id="Capa_1" data-name="Capa 1" xmlns="http://www.w3.org/2000/svg" viewBox="0 0 678.37 197.23">
  <defs>
    <style>
      .cls-1 {
        fill: #1800ad;
        stroke: #1800ad;
        stroke-miterlimit: 10;
      }
    </style>
  </defs>
  <path class="cls-1" d="M67.31,196.47c-14.19,0-26.52-2.48-36.98-7.43-10.46-4.95-18.54-12.51-24.22-22.67-1.77-3.16-3.27-6.59-4.49-10.28-4.64-13.97,5.71-28.4,20.43-28.4h.63c8.4,0,16.04,4.88,19.55,12.51.3.65.62,1.29.97,1.9,2.24,3.97,5.38,6.96,9.39,8.97,4.02,2.01,8.81,3.01,14.39,3.01,4.71,0,8.69-.68,11.95-2.05,3.26-1.36,5.76-3.27,7.49-5.7,1.74-2.43,2.61-5.27,2.61-8.52,0-2.9-.81-5.46-2.44-7.69-1.63-2.22-4.27-4.23-7.93-6.02-3.66-1.79-8.49-3.37-14.5-4.74l-16.18-3.97c-14.62-3.59-26.05-9.8-34.26-18.64C5.5,87.92,1.39,76.11,1.39,61.34c0-12.12,2.79-22.75,8.36-31.89,5.57-9.14,13.29-16.24,23.13-21.33C42.73,3.04,54.1.5,66.98.5s24.54,2.56,34.1,7.69c9.56,5.12,16.94,12.38,22.16,21.77.37.67.73,1.36,1.08,2.05,7.17,14.22-3.43,31-19.36,31h0c-7.62,0-14.81-3.94-18.54-10.58-.88-1.57-1.97-2.97-3.25-4.21-3.69-3.54-9.05-5.32-16.07-5.32-4.42,0-8.11.64-11.08,1.92-2.97,1.28-5.2,3.05-6.68,5.32-1.48,2.26-2.23,4.85-2.23,7.75,0,3.07.76,5.72,2.28,7.94,1.52,2.22,3.95,4.14,7.28,5.76,3.33,1.62,7.56,3.07,12.71,4.35l13.25,3.2c8.98,2.22,16.71,5.1,23.19,8.65,6.48,3.54,11.78,7.73,15.91,12.55,4.13,4.83,7.15,10.29,9.07,16.39,1.92,6.11,2.88,12.83,2.88,20.17,0,12.72-2.64,23.53-7.93,32.41-5.29,8.88-12.87,15.63-22.75,20.24s-21.78,6.92-35.68,6.92Z"/>
  <path class="cls-1" d="M194.37,25.29v146.65c0,12.21-9.89,22.1-22.1,22.1h0c-12.21,0-22.1-9.89-22.1-22.1V25.29c0-12.21,9.89-22.1,22.1-22.1h0c12.21,0,22.1,9.89,22.1,22.1Z"/>
  <path class="cls-1" d="M289.51,196.73c-14.77,0-28.06-3.78-39.86-11.34-11.8-7.56-21.14-18.61-28.02-33.17-6.88-14.56-10.32-32.38-10.32-53.48s3.48-39.19,10.43-53.8c6.95-14.6,16.34-25.66,28.18-33.17,11.84-7.51,25.03-11.27,39.58-11.27,10.14,0,19.48,1.65,28.02,4.93,8.54,3.29,16.04,8.05,22.48,14.28,6.44,6.23,11.67,13.88,15.69,22.93.96,2.17,1.84,4.41,2.63,6.71,4.04,11.78-4.78,24.03-17.24,24.03h-8.62c-7.36,0-13.87-4.49-16.81-11.23-.01-.03-.03-.07-.04-.1-1.48-3.37-3.4-6.28-5.76-8.71-2.35-2.43-5.14-4.29-8.36-5.57-3.22-1.28-6.83-1.92-10.81-1.92-7.31,0-13.52,2.09-18.63,6.28-5.1,4.19-8.96,10.23-11.57,18.12-2.61,7.9-3.91,17.4-3.91,28.5s1.34,21.2,4.02,29.01c2.68,7.81,6.53,13.71,11.57,17.68,5.03,3.97,11.13,5.96,18.3,5.96,4.05,0,7.67-.64,10.86-1.92,3.19-1.28,5.97-3.14,8.36-5.57,2.39-2.43,4.34-5.34,5.86-8.71.04-.08.07-.16.11-.24,2.95-6.68,9.44-11.1,16.75-11.1h8.45c12.81,0,21.57,12.87,16.95,24.81-.18.46-.36.92-.55,1.38-3.48,8.58-8.33,16.4-14.55,23.44-6.23,7.04-13.78,12.68-22.64,16.91-8.87,4.23-19.06,6.34-30.57,6.34Z"/>
  <path class="cls-1" d="M367.7,188.57L418.19,6.35c.52-1.87,2.22-3.16,4.16-3.16h53.52c1.93,0,3.62,1.28,4.15,3.13l52.05,182.21c.79,2.76-1.28,5.5-4.15,5.5h-40.87c-1.98,0-3.7-1.34-4.19-3.26l-17.86-70.77c-3.98-16.05-7.76-32.55-11.35-49.51-3.22-15.24-6.31-30.5-9.27-45.77-.52-2.67,1.53-5.14,4.25-5.14h0c2.7,0,4.74,2.45,4.25,5.1-2.82,15.29-5.69,30.56-8.62,45.81-3.26,16.95-6.88,33.45-10.86,49.51l-17.33,70.74c-.47,1.93-2.2,3.29-4.19,3.29h-40.02c-2.85,0-4.92-2.72-4.16-5.47ZM405.39,154.24v-30.56c0-2.38,1.93-4.32,4.32-4.32h80.42c2.38,0,4.32,1.93,4.32,4.32v30.56c0,2.38-1.93,4.32-4.32,4.32h-80.42c-2.38,0-4.32-1.93-4.32-4.32Z"/>
  <path class="cls-1" d="M547.55,177.53V19.7c0-9.12,7.39-16.51,16.51-16.51h53c12.23,0,22.92,2.78,32.04,8.33,9.12,5.55,16.2,13.39,21.23,23.5,5.03,10.12,7.55,21.97,7.55,35.54s-2.57,25.47-7.71,35.42c-5.14,9.95-12.36,17.63-21.67,23.05-9.3,5.42-20.15,8.13-32.53,8.13h-25.52c-9.12,0-16.51-7.39-16.51-16.51v-7.97c0-9.12,7.39-16.51,16.51-16.51h17.81c5.07,0,9.39-1.04,12.98-3.14,3.58-2.09,6.35-5.06,8.31-8.9,1.95-3.84,2.93-8.37,2.93-13.58s-.98-9.95-2.93-13.71c-1.96-3.76-4.72-6.64-8.31-8.65-3.58-2.01-7.91-3.01-12.98-3.01h0c-9.12,0-16.51,7.39-16.51,16.51v115.82c0,9.12-7.39,16.51-16.51,16.51h-11.19c-9.12,0-16.51-7.39-16.51-16.51Z"/>
</svg>